<mxfile host="Electron" agent="Mozilla/5.0 (X11; Linux x86_64) AppleWebKit/537.36 (KHTML, like Gecko) draw.io/27.0.9 Chrome/134.0.6998.205 Electron/35.5.1 Safari/537.36" version="27.0.9">
  <diagram name="PÃ¡gina-1" id="VyLSvg8yVz7twlC1HQSn">
    <mxGraphModel dx="872" dy="536" grid="1" gridSize="10" guides="1" tooltips="1" connect="1" arrows="1" fold="1" page="1" pageScale="1" pageWidth="827" pageHeight="1169" math="0" shadow="0">
      <root>
        <mxCell id="0" />
        <mxCell id="1" parent="0" />
        <mxCell id="03ttQpZzz9Yb-67rs4uc-1" value="wf&lt;div&gt;&lt;br&gt;&lt;/div&gt;" style="vsdxID=4;fillColor=none;gradientColor=none;strokeColor=none;spacingTop=-3;spacingBottom=-3;spacingLeft=-3;spacingRight=-3;points=[];labelBackgroundColor=none;rounded=0;html=1;whiteSpace=wrap;" vertex="1" parent="1">
          <mxGeometry x="120" y="260" width="152" height="120" as="geometry" />
        </mxCell>
        <mxCell id="03ttQpZzz9Yb-67rs4uc-2" style="vsdxID=5;fillColor=#FFFFFF;gradientColor=none;shape=stencil(lZjZchs5DEW/Rq8oEuD6nOU/UokzVo3HTinOor8PNGoS7Mt0d/KmdEAfEssFyJO8+fr44cvDid3X18vLvw8/zp9eH0/y9sR8fn58uJxf9ddJ3p3kzeeXy8M/l5dvz5/u//7y4WZ5+/Xfy/fbX/h5X5eZ+LaI3fX+oVYq/v8v7+/2H79d7gv83SAVqmlZ4nGN+8mLVaQii9XyqRZKcbGSxUpIGn75VBNF2eW7Duv8QIHX/FjJFeB7CnnNj4WCX/NLIV9H/tP5efBX8JTDymHTAtywLmF0mKOY1xsOjtjDhpnKer+iLizgr0Ap7eElk0e8+hj8JXHGZ6oQLxFyGK/SAr3F13jxCfMlQ76wRiKu+d65NZ0TeaTX5pANOgvlMtElAd33eAzZGsKa72tztfEzud1q8Zkyej9OwfeJOABfOqzzNUYCfM3p3ej7QAzeL5U4Al9sl8unknrYOl+oVKiWQLLrf+U7qNbiLa+4W2VQi1wplun8Na/5OVM8cD+cPkcKAnRVNAa6OgSSz5nsNThT2JEK3W5P/EVuErm8u91IAt7SNd5P3gJpG43EAg/BOsbzFCxb0/FavFCpMRIIRbZ4Nrhq9B47Nod3svYG0CiLQAP7KUxTiYa+361TkwA65C68C0j1Guoz6Jnh0KrgkJ5BDnqDA7DrXdPIDMGW3ygTQReT1KRi89A95ZtOW6Waw1GVRDNE1uww1YUqftjNs2RdrMm0luCaXazPNpHWpKpw7rko1Yp3E833mBjdNtRrTMML/fBmhXzdEs/8fUWsVAPwNd/mjlQh7jcfAV8jlKDI1flxxV+Lkk4DvYd0YUu7LUxzKUCuqGJmLM7Yd3e1roYOG61MqBLv8oc1vse9ZUfn5z7ddRHvw0rPVTdNEOEgXIGnBu67GPThLZFAtsLsEp3NozJabMmhTFOuWzNjJkAO+2rztVLD35038VScgx/bdB/Ig7PHkMhs9afBHtf4OY0af55XxpSUfpQ2aFyti6+TfV0d2Qbjay+n/QEzDxcNEzOGBCncp45BTgoMOEUzHYTcrDb4Os21W9UgZwXkTKdJRn6xS1ObJnVigYCJb7eHDb7Oyd1lrWAFxbyP8ler1gRws2mZ6g9mO4fdM7Zh1M497K7VqgasHp5bJ4uy20ZGj7aaDTay8hydYVaDo/8m7ma1Ffc4qfL4lxs/UD3Gh+kWPOGhTqpNBssXbuKztV8/tb2stY51okMIFLbWZJLJX4yzeD3oYnqfCaDjWpQRpw6FgbDdgjPhC+A1zu4oXA7vgTwfX6ZpT+/3BfnDC4i9mpTdYsnFOpRVLr7a5OH+0fi110Yf7u3NyK7hZaUSkC6Hj0x/a68/7EXr8/np6f4gNv4/voDpp/vrmbz7BQ==);strokeColor=none;spacingTop=-3;spacingBottom=-3;spacingLeft=-3;spacingRight=-3;points=[];labelBackgroundColor=none;rounded=0;html=1;whiteSpace=wrap;" vertex="1" parent="03ttQpZzz9Yb-67rs4uc-1">
          <mxGeometry y="1.4814814814814814" width="148.38095238095238" height="117.03703703703702" as="geometry" />
        </mxCell>
        <mxCell id="03ttQpZzz9Yb-67rs4uc-3" style="vsdxID=6;fillColor=#FFFFFF;gradientColor=none;shape=stencil(nVrLchw3DPwaXVl8P86O/R+uWI5UUSyXLCfS3wfMLgGyscNx5SaPOdsDEGg0QN6FDz8ePn+/v/P2x+vL85/3/zx+eX24C7/def/47eH+5fGV/roLH+/Ch6/PL/d/vDz//Pbl8u/vn/vK/tdfz3/3X3i7vBebya2/5e375Yk3ofz34NNl/e8/Xy4vuMv/J2dqvr7h+JV6efLmr4uCaddH734sauW6KFwXJVOvj96vj6KxbQteTEkreDLeAXgzwa/g2VS/gmdrYljBqyl5B56dSXEFd9aUFTx74+IK7sh0B+i0qq3oLhm3dTy94xG+sBGM70wJgE97nJX14HnvTE4z/NPjtylOCrl5bOjlSfCm+N33lmyKW783OOPy+r2lmoiR0kxr6/dW2q0EH8y7fIBfvYmAT1t8NZLxazTJAX41CeCz7HzgRXUbqpV+pQB8Mx7CpVllfrAjEBi/Ubis8OTJtLW+hbE94n3PmcvwkV3N8NFAsDTKU4Qnh9QtfDY5ADw5BOGzaXmFj5a/m/EpkOqKH/2gjg3+Ch+TsR7gk2lAFLEMBhL4qOGr2e49OT8jTSmm6JsKkZfoUQV0azwwBZHrlfKOQy9C6KXI5MGRn00EpqJVBTMvjnog+NFs976S9U7BV2BpSs+aNHwEeBX5tCgv1gNRUWSOwLs+8ePJEVFNFDQeBWYF/l5KS/heIkULxF4d18LxwfRFdVtXyEb0F30SZ4FnrwbIFfqkCuFCqxIQJT1yW/tpARbVmlRJ7/jAVLWYrPcrgv21mW2qkssSuL+5UYoX9wNTUZYlgO9bCURN6bt3P+0PSyBhjwHGdSqyrYxfhFECx1qEbKVVfmt/sSZAXad3Emx/rlw6J3wH2Zoz1453Yc/t7ufInMPwiSvnJGsiRH8D35PycOh7kiw7bFJqFapEL4grdKqqRhHBeQh8WgWGE7/ZeEwUVGh4Qw9ewM+lVwImyvQlo4A2pSgmo0YBrUoAnjmLam7FjQqilAZ6Uvpz3s4BH4TMJE78tqhN4m2KUwfWe71bPZoBvwtyjBXKk22eUnOg8hRKKjUZKkmzUlPeDum2kMR260lDO0xSXSPc1J4MfNHjA99lqXzCkXlLEtQdNHB+Z1/ETyZhqiSOWcZPXOXnGnEGD77vxQe0NBlWwP1EyBk4ipzUIFV7idySFLnfY4mM3GLy9ks9ZPzAhMzb74V0hLbTRlM4Ds1BFUqEqA/OQgKigQo6LKl46UoJioqbRHrAVUf40nPOGgyKitMO60IRJaixEK5dgaYdPDkMeJ2krQf0ZDKCW5UsUXVeXXxvgyUYyFQS9Q6wvfSmQ/mnwf4SKSIlp75jS5JeVYg42cTgaPjcGw2KNuD03nNtOSLK2GN4IjIfiNORIXpbiDKK92ruN3fYVfh8YItensKtgIbpLTGAU+iCguy/vi0NLip4L6J+oqcG9NQHAsjOVTJnGjVsN92qytxnGMhOnscw7HonPhpYPAIT3+OkZWUnip28spOa5agMEeH+LgybQXIHSZt3KXAR2KmvAjrvo6ztfoUpwCbCUvAVJ1lWVROyvgFB1EGqxzLOQpJm1Z5GJwMMTh0wPYoCmAaY296YWAYDlQs7QxfhHWaMAKQ8D26ZrtbJLejd00nv2WTYnhhWYOZgwSzP3TLvp8o+Es8eOfdk0kW8GEEaFdW/EBNW4D3nuO9i9KiUIcVy3Feb6R0Zy3otyz0a30ZfLvhJyeLOLZtdJe9wJjHz7JNf9n0mSwcOI1zIffKqhRpFhlbk6rPJYNeoeH6QDQrZoLpdWoS6SOv4nsj7qawatZBZCWf4Ov+qUmVRD0UtqEgtTHAe7tXhhRNtLqEboH1ykkkiDvK2gbFKkXXmhBJlV2TiwAi9E3XAmJ5h1MtD5AzhFjOPssTsBEKYZF4GzvMyrh1C1O5nS9FoGVpwtKHHsFH1TFXSV06v4j7QLe8bo2fdsnkZFQ/4oiI9qQ1PPPy53bIk8fovvdADZCWS4sYs7cjAqmKKGinVY2SlOPssrSgL8TjudG7qpFVh/CYiXqgEHVydaMMgq1Z4aonbviUP6jiwSilieFIEBeC5gZnNd2B+cyciysmQchpJoPU3JhKJc5jhm3Qk06HLvtOh4u0BvnKfzGUkyGnxwJdefhoHcfAFXrWvI/2UDsdhjbUg112rx1HNQPAFbmcFvo7KdsTlySRlvdUKGitJP5iC2CPN4yD4TofWvavUm4+xTwSOx/DNqm6PhFkG79cKub+SBfFYG9YfvHDj5F5tl54g9SkuZEs3S59e3xjyb6M1k/jESXNWZyw5MhbDVwPBmrP02RIt+5FEvhmseMaBIwln7QpdgjqMo5/ZF/6SZCgn0Di0LkXnSWU7Gb+pCtx4mHl8vIP3RdrN06WImRL4yGE6jFTHK+7sMDSJtJChPU6O++wfT7eyGh32VZgpPII/xm+gf6ozEPd9SouTUxm7TeY7oOnzw8UgnyyT04zudxJYA98ryUufhOGnRMJKFN07q6o4kSHzcfPBC8rCLAeTQjYBdFYnqNXABFXg1kl7HolydNDv1eFZknh7k0huWmJGKMI9K/Ck3Z8EV8vqAC05jQ+RTa19BVKjZMczgVjO7lg0UXYyBcAKzCTG6CIJpJOzgO1O7mLJG6Me6/nV/H1TQcbptracavu+hW6w5yGoUjLvjEz7GoLrPe9d5LaWzNEk00YLA4c5MqWBxyt4N2K+D3/3hF7VCEsa5olP8bZAF3l4W0JfLqFVYX9bwalK7qUiT/WsaPPxGLIkpbw83FZY6SkHudR1XW8Hw/36+Xqf/AAB0yqQ6aTccTw1LZrapi1BTa9I2xKTAleDXuZ1QQ/qaksbo5xj1YW3wIqqPfO1Sp60YqBmq6bMfDJ0pDirksgB50y9uIDgczKPlU4/QJS4sYFH2EFd/tP3Gpw6rAa5d2PGu8xgzwa8/38x/SE3hr8+Pj1dLhzP/483jOnR5XZy+Pgv);strokeColor=none;spacingTop=-3;spacingBottom=-3;spacingLeft=-3;spacingRight=-3;points=[];labelBackgroundColor=none;rounded=0;html=1;whiteSpace=wrap;" vertex="1" parent="03ttQpZzz9Yb-67rs4uc-1">
          <mxGeometry width="152" height="120" as="geometry" />
        </mxCell>
        <mxCell id="03ttQpZzz9Yb-67rs4uc-4" style="vsdxID=7;fillColor=#aa643b;gradientColor=none;shape=stencil(lVzbkhy3Df2afWXxfnl2nP9wxXK0FUVyyXKy+/cGvUMAfdDN3n1bjdiDJgEcHFw4T+mnPz7/8vunp+j/+PH9238+/f/51x+fn9I/nmJ8/vr50/fnH/TXU/r5Kf3027fvn/79/dufX399+/fvv8yV86//fvvf/IaXt+d6db7Mp6J/ffskNlfr35/88+2Bf/35/e2J8Hgku9gejwR55vEtL/GxKrr1vY9PYnc+PRalxyLven2sSryqbcW34eb/HsQPl8dRfGuu5aP85F1pR/mt8ks+PknBjajFf3n+qo6rBhePp+VdHLvXrXEt4NcNfX3Jelta1NPxbUNxvRzflla1cXzdkFxuN+L5HJb44Pww8sNRPGtBpHs38lF6dS3shJfhGlhKdrUdZZfuAgiPboCiSnUhwdZd38rOLpSjbO8qnHshbYNsfxSch6sg2O/E5uYSij3KzMWFCDLlxZbY9NH95mD2q45xucBAp1T6WB7QXQLRd3pOzQXQs7KfJZt8DW1cWWLiVbl/0MbnM2jjyntE/uggXxxRNu/bUbzx8CMiROVgFxCC70uqjPC+iYXw+4bhUju+L+GcB20FsrcAL9zXgxfy6XAimkozfknH7hHBmytwYMGvzYr85kbaye8CY0FeOR3FV1kku48dYIHth/GbfGmLx2RMcPSMfS8MP74eRae0tiQbd7Btsi+/9RJvkGFaG2jdg3vSQ4DD3gXYc44LP64l96PknF1HfWMIICjzEIEia4Bl9xUVrs8boKFQ0M9H2UqP65O49MTxxw3Yd0kLKy4NrYOhUVQogEsThACPC0E0SCdvwGOfq8rWz5K8csBnRH42lk6rPFg6+WyBo6e9HP0MgCm4vPD2wXbSDY5PyAFDaZnhjV+4cbhaL0w8aqEQvzB9BB7SCG631I42uRgixxECxmAOLAK1I7KZERizfNdim3kZ3rXCOspvp/KRLQ3WjlJYAG45gmt7g6niB4+PRmKGos6/wP5HcQ3lK10u+RSmt/4yQS2C/C47W/CYTGAaRMARKoohTrSq7QNjMw5LzwyASIL4YOVXcFiC9QipBe3lhsdkA9F0Zg32T0Bv5FcJ30s+aQn1n90eKjtHGRYfJeIKh+tgfsMb8RQ4mGUu828A1Ue8ILK+QOf14oETfo94MSyRocQhQjzV21rwHliF+ry2+qpphVyRT7AD4rPJrbRSl/hqeMytudRhxQ+TCLcgCeDyYA9ZBiGzMZaxgPcqDy5iByI9Q1SnPHjg4XcHlIJSagsVcbv3rtS1pMsLcREgIamYeAaeSrDsUfNhKei6BjHA8giDMb3rxSDVxHOUX8SfVaS4lY8ZD9k0bj8vwBX53sqPgnoqUm5ZLB1/AaScMRgi9dQrRIoZz7EI0kxZYTKFDVSQWle28HrBRU4OLAO0apYjCouQc2jGtA5M1azey8VI7z0b+RG4YJc4wvKzBCCxTsyQC0eOC/nDQhXR1wYGO4SeKiLMq5b8YqpmJawU+Eq+TdGJhyMXJWhAapMNWtAihMpcb/xlqDLKSkFIZUjFPaY/yWHaxUuWaKa5V6SKn1hhdjDYvkT7eivMklfc7juVBUNX+1YHKiQjovhmGAXRFxRvtZ5o71tCpe1JKg0BIqS2Tcm1MQM6sXpKsPZON0yQmBQPna4ZlJqFBnC6E6enVccADSh1X9r+8APH4nmLUrpk+hG2tZfmLcUWPsmcpQuxEoqPKQZxlg61n0mZ9uVoAj3kmORkSNmysQhSfwdfJPoVIXAQ/dsXQWrkIjwHzs5RUtWjcf+knID7V6U3Cdxxi4P0zgEckuJvCnb/EeR7Ll+y/MLFGQ6cY3nXlfy66lMSuJtJsUn/GLelHsZx20uwlH7GnjNKnV9Yg4fNN7t5WhUhvyf62ZqRPvbG35gi6c1DEMRqCO6bNIFIQB/V7cZ7wI33aBKVyWkh+vZsNq5XCTaFO7pWAYfJ6rEKNncB7GeCLtK1buIAeXDcAjGdsgevG9KGUIpH9qOxKYkNIeog6h1x9R0wecTVmbwea+rSc7zKnceqrcgJB4Ors7cBJ0zHiaWrJFCjTDtsIsfkKccXJmzYvm8W8vkq0NDgfXNDHKhNKuXSoirgibLqKnMPpi2ov3lxz8RVYpZfTepcpPj0ms53D03UKJ3Ei+M1sOm5n8TI0THTn+UI9N9g7Ld0yYjThXWBdu/N8cMPHA0+NG5grwfq8pkrWqsekRwrAKSEbpo4E/iwVjsceHTnXvlVqc6bdmOT8hWXCoNBlKZGBRaPS6ZUSQbRt4gaizRIJZTh9mMz26e4hQUIorGY/9Yb/yEWjXDTuEsqcBMl6VXbh3wqJZt/j9WCupJvt08qy5BXzJYUpDVT+4AfqTrLovYsNlXT2J8Ga6QXJHHS62fpNq2htGFfTEjSn+FwFmzDOZnm/qS6EeRHge731h2n9m04xepPVOVcCafY8J4mivJ51ZXxZ4dl6mo6ibONiWXqwrJYvDctPTqkvfYJVBB6Jk8B5FH4JNrHoRK9SpGpTVb3DqgEbE3SLnqoL9wUa4L1LnlGdlilBhh5lekTd+nWiMP7rX1PcLVVA0zbCVwTgCs5RkX7Ut1s1ZrY2vecaYDqKvErZAdqvoTrNfJKSj6IJ7IU922oaHLUSZfQvVQ9YomvplYXhmkb577y3Wv7RrZOHAvbQFP9WKskXED1FwytRL0exPu6C4njGfQMGp/dfQlYLBu2Z+xX7esqUzBl0rl1LA8YFk1nWgDYi4Nq0SwS7jmx2XeWagWjuuTPl0VCtUaqhDcB3aTllCtUUHk2slM1dTI7wJTukpcuGCxDKcjkvLNgk4BJaaxLuOocTu/REXOzw+rZMt/PpUH1NQTT0Ca6jFXvwe2dF9FgRZK6wOZKdDR+XB1mWGpMkIdRMnAEMkO0p5sZWUrcsPJpG/kzccNBI+GQqrIfUPieHlDahgO6mY2Sk6Vs0LvwwIgauzSjgH2fWNqNd654qpHPAoceoCNabLF9Ws5dOxr9KCQz51QG9iTnsCDmtF06h0JVtk5cJLFh6UNqhpFPNANuUyDDaR9SjpmLjjfDGyWZQeOYZGJOgkQG0kCrOtCyPEw/WlZdmXw/k4/F/jlUhvtP2GEif+vNiN8bPTkyDqVHM7pCoQLz0TlXCwhOuNFw997tpQd5Y1H+wM0H0+cJ3Yr3JnzJyNUlypq2whzAwsmZYUdg7ahZhg4b+VDb1b5uAsLHVkODJclAFGuwx+uvr0EqzILE+46INx2JLLNLGjWQ8ySjOsIArGSQMe07MqXIOJ1YE1YyyLsxVkydY20rsM45/rMZnk/9qCcept5upiqLnZKKUl/mF24yTrRcrXAI5xceZkwpJgjrUEyWULYIS75rOyQzHz6HwcE5mxrDEH8BJkCLLLPcH5d6RHgJDh60k1wqmesy2h0kmdp424f95x0PHD10xlwYBUnLeTZhGkcRioMDKTx8JfSkmQ5caaYXMy1qH6erEEmBAJxcKvaWRo2meFOSoQnzKs82wyKPw1GImnD7M+mC7delaQHqxpccWHq6mQjISIiVlQklTnbnKDuaKnq9G73PdufTFiBIEaw1OPnSTHaZ1TS99CHK1hN1+BPSVLORj0FaqUzJx6GtzIOZm/0j0jcz3koni+MQuRpmnrNNC8pNjpuL2T99DSbY06qwrpJMzT4P0VLCVVeWH22Cn8y8ZJErSa9ikfY+WMayUl0R8kp8t+K7HKwEepxWLV6ChaBMBMcvy4mvpmvvcPLDD0BiLpM1V5EcqJh5wHCFEwvCMkn2JpidsOzJaNCCgyH5kyvdFBNMYVTik+7ymhqRpR5zwAtNiG9Bnd+oqMIBz6OvqWRK/iyxf0BSMhehwUdTVtKrVFHrTjreOBq2T1D4AFVVayXfLD7LKilrjc1p2SboZHZ7gIzSeJc+X0GAzA60O+knppDNZtAfdQfzwNHhYsGB+dmu31BXOtZ6fGCy732nSV2aFBTFTkBSaBh5Fd6hnassZu0jpvpiRdVwqqIaCyr2pmAS+qa42n5aizwZOwHVG+aeFFQKY8GA5e2URIIpc1BXkhD79gnlHvsLTCnYAadkptuivdlJ/B/xiawPHK7d3fOLFS836u9VWZgVjl0j6+4twu0pKCR3HOooeLwn142QD5Vomtgx2ftxUu1Q142QDu2d8cPe+44H7qZD6ZN956kO6SmJBnE4sJkLQDN9xB8LMDXrlmE2EwhHx4vM5B97Qk2+6MHg5uQmvG4whYAq0xPq+g8OEc0LSftZzmj60LMAA2xAEjJ9pwCvC+pVF4TuRHzHPl00I1xV9VIlncAuMa3C23KzT7hRF2mTE1Q2x/2lkSadDX0HAMc/Zfb6+jJut2MDxt1t3Qauo8Yl6Lpug/2bZvHhpG7TZHx4M7VovPFuatE8AP4uPybC/Gw/jVtxjIMiGeYjrdnb6A2DW+tmdzJXcyV98P0LfTUBvOdkJjVFe4Ur4ghRumtXqGE1NWOBu58j+bj7YCaY5kVFiFaJ24XXdxNwhgeRYwQhTGrvcPYjmin8dHsb6GTzxUyBz3EdPHvLq4byaqn55q3u531hzOOCaRcMwxRyQiAYfFNO1yHilqYM+9Ms+rcGIp8rjk+d3EUKZgR/VibuFI9RwzugaHL19TBeAaBydhGNV12JT6xBNd2RUH6wv4jgzeQvuTDOWPQbzZ+M4M/CCf56UjW/E5PNj0HYH09CwANAvcNH+kN+puq35y9f3n7lSv8//qwVffT2k1jp578A);strokeColor=none;spacingTop=-3;spacingBottom=-3;spacingLeft=-3;spacingRight=-3;points=[];labelBackgroundColor=none;rounded=0;html=1;whiteSpace=wrap;" vertex="1" parent="03ttQpZzz9Yb-67rs4uc-1">
          <mxGeometry x="3.619047619047619" y="1.4814814814814814" width="144.76190476190476" height="114.07407407407406" as="geometry" />
        </mxCell>
        <mxCell id="03ttQpZzz9Yb-67rs4uc-6" value="" style="points=[];aspect=fixed;html=1;align=center;shadow=0;dashed=0;fillColor=#FF6A00;strokeColor=none;shape=mxgraph.alibaba_cloud.waf_web_application_firewall;" vertex="1" parent="1">
          <mxGeometry x="500" y="170" width="151.7" height="133.2" as="geometry" />
        </mxCell>
        <mxCell id="03ttQpZzz9Yb-67rs4uc-7" value="" style="points=[];aspect=fixed;html=1;align=center;shadow=0;dashed=0;fillColor=#FF6A00;strokeColor=none;shape=mxgraph.alibaba_cloud.cdn_content_distribution_network;" vertex="1" parent="1">
          <mxGeometry x="342.26" y="80" width="96.46" height="80" as="geometry" />
        </mxCell>
      </root>
    </mxGraphModel>
  </diagram>
</mxfile>
